<svg id="svg" version="1.1" xmlns="http://www.w3.org/2000/svg" xmlns:xlink="http://www.w3.org/1999/xlink" width="400" height="451.8010291595197" viewBox="0, 0, 400,451.8010291595197"><g id="svgg"><path id="path0" d="M146.141 23.760 C 108.688 34.340,78.009 43.019,77.966 43.046 C 77.882 43.099,74.482 274.935,74.565 274.989 C 75.194 275.404,208.655 322.506,208.797 322.364 C 208.910 322.251,209.285 305.286,209.631 284.664 C 209.977 264.042,210.667 222.806,211.165 193.028 C 211.663 163.250,211.990 138.806,211.893 138.708 C 211.795 138.610,209.272 139.606,206.286 140.921 C 203.300 142.236,199.507 143.897,197.856 144.613 L 194.854 145.913 194.855 149.028 C 194.855 153.057,192.484 293.836,192.369 296.625 L 192.281 298.738 142.024 280.894 C 114.383 271.080,91.747 263.028,91.723 263.000 C 91.633 262.897,94.696 56.133,94.789 56.040 C 94.871 55.958,131.137 45.687,189.708 29.156 C 204.015 25.118,213.860 22.285,213.928 22.188 C 214.003 22.080,214.381 4.458,214.307 4.491 C 214.268 4.509,183.593 13.180,146.141 23.760 M24.014 363.989 C 12.804 365.540,6.185 372.605,6.185 383.019 C 6.185 397.222,19.076 405.080,36.278 401.362 L 38.079 400.972 38.079 390.709 L 38.079 380.446 34.141 380.446 L 30.203 380.446 30.110 387.393 L 30.017 394.340 28.130 394.450 C 20.269 394.908,15.088 390.314,15.098 382.894 C 15.108 374.845,22.846 370.392,33.715 372.180 L 35.355 372.450 35.259 368.486 L 35.163 364.521 33.962 364.268 C 31.861 363.825,26.322 363.669,24.014 363.989 M75.122 377.772 C 71.112 385.563,66.681 394.138,65.276 396.827 L 62.721 401.715 67.306 401.715 L 71.891 401.715 73.164 399.142 L 74.437 396.569 82.598 396.569 L 90.759 396.569 92.032 399.142 L 93.305 401.715 97.957 401.715 L 102.608 401.715 98.838 394.425 C 96.764 390.416,92.364 381.890,89.062 375.478 C 85.759 369.066,82.912 363.772,82.734 363.713 C 82.557 363.654,79.132 369.981,75.122 377.772 M314.230 377.772 C 310.220 385.563,305.789 394.138,304.384 396.827 L 301.829 401.715 306.414 401.715 L 310.999 401.715 312.272 399.142 L 313.545 396.569 321.706 396.569 L 329.867 396.569 331.140 399.142 L 332.413 401.715 337.065 401.715 L 341.716 401.715 337.946 394.425 C 335.872 390.416,331.472 381.890,328.170 375.478 C 324.867 369.066,322.020 363.772,321.843 363.713 C 321.665 363.654,318.240 369.981,314.230 377.772 M122.127 368.268 L 122.127 372.213 127.101 372.213 L 132.075 372.213 132.075 386.964 L 132.075 401.715 136.364 401.715 L 140.652 401.715 140.652 386.964 L 140.652 372.213 145.626 372.213 L 150.600 372.213 150.600 368.268 L 150.600 364.322 136.364 364.322 L 122.127 364.322 122.127 368.268 M176.672 383.019 L 176.672 401.715 189.365 401.715 L 202.058 401.715 202.058 397.770 L 202.058 393.825 193.654 393.825 L 185.249 393.825 185.249 389.365 L 185.249 384.906 190.051 384.906 L 194.854 384.906 194.854 381.304 L 194.854 377.702 190.051 377.702 L 185.249 377.702 185.249 374.957 L 185.249 372.213 193.482 372.213 L 201.715 372.213 201.715 368.268 L 201.715 364.322 189.194 364.322 L 176.672 364.322 176.672 383.019 M226.072 364.486 C 226.072 364.940,244.970 402.401,245.198 402.398 C 245.339 402.397,247.978 398.074,251.063 392.792 C 254.147 387.511,256.807 383.105,256.973 383.003 C 257.140 382.900,259.477 387.222,262.168 392.609 C 264.860 397.995,267.217 402.395,267.407 402.388 C 267.664 402.378,285.732 366.451,286.392 364.637 C 286.458 364.456,284.549 364.322,281.915 364.322 L 277.323 364.322 272.403 374.622 C 269.697 380.287,267.397 384.835,267.290 384.729 C 267.184 384.623,264.994 380.026,262.425 374.515 L 257.752 364.494 252.883 364.399 L 248.013 364.304 250.422 369.111 C 251.746 371.755,252.830 374.096,252.830 374.313 C 252.830 374.926,246.859 385.591,246.567 385.500 C 246.424 385.455,243.986 380.710,241.150 374.956 L 235.992 364.494 231.032 364.399 C 228.304 364.347,226.072 364.386,226.072 364.486 M358.358 364.751 C 358.496 364.987,361.516 369.754,365.068 375.344 L 371.527 385.509 371.527 393.612 L 371.527 401.715 375.815 401.715 L 380.103 401.715 380.103 393.591 L 380.103 385.466 386.278 375.101 C 389.674 369.399,392.453 364.642,392.453 364.529 C 392.453 364.415,390.330 364.325,387.736 364.329 L 383.019 364.335 379.760 370.371 C 377.967 373.692,376.346 376.617,376.158 376.873 C 375.900 377.222,374.876 375.716,372.049 370.830 L 368.284 364.322 363.195 364.322 C 359.220 364.322,358.162 364.416,358.358 364.751 M84.961 384.416 C 86.192 386.977,87.129 389.143,87.043 389.229 C 86.957 389.315,84.885 389.343,82.438 389.290 L 77.990 389.194 80.216 384.477 C 81.440 381.883,82.505 379.760,82.582 379.760 C 82.659 379.760,83.730 381.855,84.961 384.416 M324.069 384.416 C 325.301 386.977,326.237 389.143,326.151 389.229 C 326.065 389.315,323.993 389.343,321.546 389.290 L 317.098 389.194 319.324 384.477 C 320.548 381.883,321.613 379.760,321.690 379.760 C 321.767 379.760,322.838 381.855,324.069 384.416 M79.726 416.976 C 63.800 420.441,64.707 443.365,80.875 446.006 C 89.348 447.391,97.061 441.894,98.070 433.752 C 99.451 422.597,90.696 414.590,79.726 416.976 M250.910 416.976 C 234.984 420.441,235.891 443.365,252.058 446.006 C 260.532 447.391,268.245 441.894,269.253 433.752 C 270.635 422.597,261.880 414.590,250.910 416.976 M26.812 419.586 C 26.083 421.172,23.898 425.990,21.955 430.292 C 20.013 434.594,18.309 437.991,18.169 437.839 C 18.029 437.688,16.006 432.972,13.674 427.360 L 9.434 417.155 7.433 417.154 C 6.332 417.153,5.483 417.286,5.546 417.450 C 6.638 420.285,17.720 445.962,17.853 445.965 C 17.956 445.967,20.271 441.108,22.999 435.167 C 25.727 429.226,28.036 424.365,28.130 424.365 C 28.225 424.364,30.483 429.157,33.148 435.014 C 35.814 440.872,38.117 445.694,38.266 445.731 C 38.415 445.768,41.270 439.391,44.611 431.561 L 50.685 417.324 48.975 417.219 C 46.911 417.092,47.859 415.491,42.846 427.570 C 40.507 433.205,38.439 437.781,38.250 437.738 C 38.062 437.695,35.787 433.023,33.196 427.355 C 30.605 421.687,28.406 416.971,28.310 416.875 C 28.215 416.779,27.540 417.999,26.812 419.586 M120.412 431.345 L 120.412 445.626 122.127 445.626 L 123.842 445.626 123.842 440.480 L 123.842 435.334 127.015 435.330 C 128.761 435.327,130.497 435.247,130.875 435.152 C 131.472 435.002,131.873 435.671,133.962 440.300 L 136.364 445.620 138.165 445.623 C 140.369 445.627,140.482 446.306,137.181 439.713 C 134.597 434.553,134.442 434.126,135.037 433.800 C 139.845 431.159,140.619 423.301,136.424 419.710 C 134.318 417.908,132.378 417.449,125.986 417.243 L 120.412 417.064 120.412 431.345 M161.578 431.389 L 161.578 445.626 163.286 445.626 L 164.995 445.626 165.087 438.605 L 165.180 431.584 171.527 438.601 L 177.873 445.619 180.087 445.622 L 182.300 445.626 181.100 444.340 C 180.439 443.632,178.063 441.046,175.819 438.593 C 173.575 436.141,171.127 433.487,170.380 432.696 L 169.022 431.258 174.134 425.716 C 176.945 422.667,179.836 419.494,180.558 418.663 L 181.872 417.153 179.829 417.153 L 177.786 417.153 171.483 424.178 L 165.180 431.204 165.087 424.178 L 164.995 417.153 163.286 417.153 L 161.578 417.153 161.578 431.389 M202.744 431.389 L 202.744 445.626 204.460 445.626 L 206.175 445.626 206.175 440.480 L 206.175 435.334 212.693 435.334 L 219.211 435.334 219.211 433.791 L 219.211 432.247 212.693 432.247 L 206.175 432.247 206.175 426.244 L 206.175 420.240 211.835 420.240 L 217.496 420.240 217.496 418.696 L 217.496 417.153 210.120 417.153 L 202.744 417.153 202.744 431.389 M291.595 431.345 L 291.595 445.626 293.310 445.626 L 295.026 445.626 295.026 440.480 L 295.026 435.334 298.199 435.330 C 299.944 435.327,301.681 435.247,302.058 435.152 C 302.655 435.002,303.057 435.671,305.146 440.300 L 307.547 445.620 309.348 445.623 C 311.553 445.627,311.666 446.306,308.364 439.713 C 305.780 434.553,305.626 434.126,306.220 433.800 C 311.029 431.159,311.803 423.301,307.608 419.710 C 305.502 417.908,303.562 417.449,297.170 417.243 L 291.595 417.064 291.595 431.345 M342.139 417.641 C 327.528 421.184,327.363 441.323,341.914 445.113 C 342.997 445.395,345.318 445.626,347.070 445.626 L 350.257 445.626 350.256 443.997 L 350.255 442.367 347.083 442.358 C 339.533 442.337,334.682 438.003,334.701 431.297 C 334.721 424.593,339.308 420.514,346.911 420.443 L 350.254 420.412 350.255 418.782 L 350.257 417.153 347.084 417.182 C 345.339 417.198,343.114 417.404,342.139 417.641 M372.213 431.389 L 372.213 445.626 381.647 445.626 L 391.081 445.626 391.081 444.082 L 391.081 442.539 383.362 442.539 L 375.643 442.539 375.643 438.937 L 375.643 435.334 381.990 435.334 L 388.336 435.334 388.336 433.791 L 388.336 432.247 381.990 432.247 L 375.643 432.247 375.643 426.244 L 375.643 420.240 381.132 420.240 L 386.621 420.240 386.621 418.696 L 386.621 417.153 379.417 417.153 L 372.213 417.153 372.213 431.389 M88.589 420.900 C 95.296 424.133,96.911 434.397,91.555 439.754 C 85.999 445.310,75.462 443.266,72.699 436.096 C 68.758 425.870,78.858 416.211,88.589 420.900 M259.772 420.900 C 267.985 424.858,267.985 437.846,259.772 441.897 C 254.075 444.707,246.075 441.786,243.882 436.096 C 239.941 425.870,250.041 416.211,259.772 420.900 M132.689 421.225 C 135.131 422.483,136.228 425.084,135.491 427.868 C 134.671 430.966,132.148 432.247,126.867 432.247 L 123.842 432.247 123.842 426.200 L 123.842 420.152 127.530 420.310 C 130.448 420.434,131.525 420.626,132.689 421.225 M303.873 421.225 C 306.315 422.483,307.412 425.084,306.674 427.868 C 305.854 430.966,303.332 432.247,298.051 432.247 L 295.026 432.247 295.026 426.200 L 295.026 420.152 298.714 420.310 C 301.632 420.434,302.709 420.626,303.873 421.225 " stroke="none" fill="#050506" fill-rule="evenodd"></path><path id="path1" d="M0.000 225.901 L 0.000 451.801 200.000 451.801 L 400.000 451.801 400.000 225.901 L 400.000 0.000 200.000 0.000 L 0.000 0.000 0.000 225.901 M214.408 11.959 C 214.408 16.084,214.314 20.145,214.199 20.985 L 213.990 22.512 205.365 24.960 C 200.622 26.306,186.630 30.257,174.271 33.739 C 161.913 37.222,139.030 43.675,123.422 48.080 L 95.042 56.089 94.885 57.461 C 94.697 59.109,91.832 262.800,91.996 262.921 C 92.385 263.209,191.946 298.391,192.057 298.280 C 192.133 298.204,192.774 263.858,193.482 221.955 C 194.190 180.053,194.827 145.724,194.897 145.669 C 195.352 145.317,212.035 138.167,212.138 138.281 C 212.208 138.358,211.874 161.464,211.397 189.628 C 210.920 217.791,210.592 240.893,210.668 240.966 C 210.744 241.039,224.005 237.720,240.137 233.591 L 269.468 226.083 288.615 232.460 C 299.146 235.967,307.710 238.888,307.647 238.951 C 307.584 239.014,288.014 244.099,264.158 250.250 C 221.575 261.230,219.623 261.754,221.298 261.745 C 223.317 261.735,257.131 263.205,257.240 263.308 C 257.307 263.371,254.488 269.091,250.976 276.019 C 247.463 282.946,244.630 288.648,244.679 288.688 C 244.728 288.728,269.082 282.147,298.799 274.063 L 352.830 259.364 371.184 267.300 C 391.876 276.247,390.589 275.598,388.616 276.096 C 372.071 280.278,210.223 322.225,209.641 322.482 C 208.893 322.811,75.817 276.093,74.654 275.092 C 74.290 274.779,77.525 43.532,77.900 43.100 C 78.135 42.828,213.005 4.563,213.979 4.491 C 214.310 4.467,214.408 6.171,214.408 11.959 M174.563 162.818 C 175.842 163.455,176.902 164.391,178.229 166.054 C 179.257 167.342,180.268 168.501,180.477 168.630 C 180.686 168.759,181.292 169.784,181.824 170.909 C 185.881 179.487,178.536 188.841,170.669 185.116 C 167.892 183.801,164.126 178.976,163.087 175.401 C 162.094 171.988,163.075 173.054,164.273 176.690 C 164.729 178.077,166.863 180.737,166.596 179.588 C 166.050 177.235,166.024 174.950,166.531 173.970 C 167.179 172.716,167.195 172.528,166.638 172.742 C 166.163 172.924,165.493 171.632,165.135 169.841 C 164.976 169.050,165.019 168.748,165.268 168.902 C 165.470 169.027,165.739 169.745,165.867 170.499 C 166.118 171.989,166.499 172.179,167.469 171.302 C 168.216 170.625,168.277 170.154,167.618 170.154 C 167.355 170.154,167.047 169.910,166.932 169.612 C 166.547 168.609,166.719 168.434,167.410 169.125 C 167.787 169.503,168.408 169.811,168.789 169.811 C 169.291 169.811,169.708 170.306,170.304 171.612 C 170.769 172.629,171.140 173.126,171.155 172.754 C 171.203 171.630,173.242 170.021,173.242 171.107 C 173.242 171.840,175.308 173.621,175.519 173.070 C 175.637 172.762,175.559 172.335,175.346 172.121 C 174.784 171.559,174.865 171.259,175.643 171.012 C 176.482 170.746,176.526 169.744,175.751 168.562 C 175.209 167.735,175.209 167.660,175.751 167.356 C 176.549 166.910,176.479 166.547,175.405 165.552 C 174.602 164.807,174.557 164.666,175.060 164.473 C 176.822 163.797,171.671 162.737,169.048 163.236 C 168.149 163.407,167.508 163.412,167.610 163.248 C 167.711 163.084,167.630 162.950,167.430 162.950 C 167.230 162.950,167.067 163.126,167.067 163.341 C 167.067 163.829,166.028 164.640,165.384 164.655 C 164.594 164.672,165.913 163.427,167.533 162.625 C 169.589 161.607,172.282 161.681,174.563 162.818 M165.352 166.080 C 165.352 165.868,165.583 165.695,165.866 165.695 C 166.149 165.695,166.381 165.998,166.381 166.370 C 166.381 166.839,166.218 166.983,165.849 166.841 C 165.421 166.677,165.361 166.814,165.543 167.538 C 165.749 168.360,165.679 168.439,164.743 168.439 C 163.511 168.439,163.108 167.484,163.877 166.387 C 164.278 165.813,164.485 165.746,164.868 166.063 C 165.216 166.352,165.352 166.357,165.352 166.080 M167.753 166.724 C 167.753 167.290,167.617 167.753,167.450 167.753 C 167.107 167.753,166.725 166.151,167.002 165.874 C 167.446 165.430,167.753 165.778,167.753 166.724 M176.048 174.979 C 175.799 175.381,175.686 175.800,175.797 175.911 C 176.128 176.242,176.746 175.416,176.619 174.810 C 176.520 174.339,176.427 174.367,176.048 174.979 M175.986 179.000 C 174.590 179.939,174.182 180.789,175.129 180.789 C 175.412 180.789,175.643 180.979,175.643 181.211 C 175.643 181.443,176.128 181.149,176.721 180.556 C 178.316 178.961,177.769 177.802,175.986 179.000 M92.819 382.343 C 98.175 392.715,102.561 401.316,102.565 401.458 C 102.569 401.599,100.416 401.715,97.781 401.715 L 92.988 401.715 91.799 399.142 L 90.611 396.569 82.602 396.569 L 74.593 396.569 73.320 399.142 L 72.047 401.715 67.413 401.715 C 64.864 401.715,62.779 401.614,62.779 401.490 C 62.779 401.289,70.746 385.744,79.330 369.195 C 81.022 365.931,82.559 363.312,82.744 363.373 C 82.929 363.435,87.463 371.971,92.819 382.343 M331.927 382.343 C 337.283 392.715,341.669 401.316,341.673 401.458 C 341.677 401.599,339.524 401.715,336.889 401.715 L 332.096 401.715 330.907 399.142 L 329.719 396.569 321.710 396.569 L 313.701 396.569 312.428 399.142 L 311.155 401.715 306.521 401.715 C 303.972 401.715,301.887 401.614,301.887 401.490 C 301.887 401.289,309.854 385.744,318.438 369.195 C 320.130 365.931,321.667 363.312,321.852 363.373 C 322.037 363.435,326.571 371.971,331.927 382.343 M33.505 364.015 L 35.678 364.393 35.678 368.421 L 35.678 372.450 30.571 372.286 C 20.229 371.954,15.241 375.504,15.282 383.166 C 15.318 389.950,19.257 393.789,26.501 394.103 L 29.846 394.248 29.846 387.175 L 29.846 380.103 34.134 380.103 L 38.422 380.103 38.422 390.550 L 38.422 400.997 37.136 401.353 C 23.219 405.211,9.540 399.466,6.655 388.553 C 2.495 372.816,15.548 360.888,33.505 364.015 M150.600 368.268 L 150.600 372.213 145.626 372.213 L 140.652 372.213 140.652 386.964 L 140.652 401.715 136.192 401.715 L 131.732 401.715 131.732 386.964 L 131.732 372.213 126.758 372.213 L 121.784 372.213 121.784 368.268 L 121.784 364.322 136.192 364.322 L 150.600 364.322 150.600 368.268 M201.715 368.261 L 201.715 372.200 193.568 372.292 L 185.420 372.384 185.320 375.043 L 185.220 377.702 190.209 377.702 L 195.197 377.702 195.197 381.475 L 195.197 385.249 190.212 385.249 L 185.228 385.249 185.324 389.451 L 185.420 393.654 193.739 393.745 L 202.058 393.837 202.058 397.776 L 202.058 401.715 189.365 401.715 L 176.672 401.715 176.672 383.019 L 176.672 364.322 189.194 364.322 L 201.715 364.322 201.715 368.261 M241.308 374.792 C 244.122 380.543,246.515 385.247,246.625 385.245 C 246.736 385.243,247.557 383.893,248.448 382.244 C 249.340 380.595,250.676 378.162,251.417 376.839 L 252.764 374.432 250.396 369.498 C 249.093 366.784,248.027 364.510,248.027 364.443 C 248.027 364.377,250.241 364.322,252.947 364.322 L 257.867 364.322 262.619 374.486 L 267.371 384.649 268.854 381.604 C 269.670 379.929,271.870 375.356,273.744 371.441 L 277.149 364.322 281.944 364.322 L 286.738 364.322 277.258 383.533 C 272.044 394.099,267.617 402.744,267.420 402.744 C 267.223 402.744,264.821 398.260,262.083 392.780 L 257.104 382.815 251.527 392.351 C 248.460 397.596,245.806 402.117,245.631 402.399 C 245.100 403.249,244.909 402.900,235.148 383.222 L 225.772 364.322 230.982 364.328 L 236.192 364.334 241.308 374.792 M370.165 367.238 C 371.050 368.748,372.702 371.576,373.836 373.523 L 375.898 377.063 379.229 370.950 C 381.061 367.588,382.675 364.717,382.816 364.570 C 382.957 364.423,385.264 364.346,387.942 364.398 L 392.811 364.494 386.462 375.129 L 380.113 385.763 380.108 393.739 L 380.103 401.715 375.815 401.715 L 371.527 401.715 371.527 393.781 L 371.527 385.847 367.348 379.287 C 365.049 375.679,361.961 370.832,360.486 368.516 L 357.804 364.305 363.180 364.400 L 368.556 364.494 370.165 367.238 M80.428 384.444 C 79.306 386.832,78.336 388.916,78.273 389.076 C 78.210 389.235,80.171 389.365,82.630 389.365 L 87.101 389.365 85.039 384.991 C 83.905 382.586,82.863 380.501,82.723 380.359 C 82.583 380.217,81.550 382.055,80.428 384.444 M319.536 384.444 C 318.414 386.832,317.444 388.916,317.381 389.076 C 317.318 389.235,319.279 389.365,321.738 389.365 L 326.209 389.365 324.147 384.991 C 323.013 382.586,321.971 380.501,321.831 380.359 C 321.691 380.217,320.658 382.055,319.536 384.444 M33.478 427.514 C 36.915 435.098,38.325 437.883,38.516 437.462 C 38.663 437.141,40.615 432.479,42.855 427.101 L 46.929 417.324 48.850 417.221 C 49.907 417.165,50.771 417.242,50.770 417.393 C 50.764 418.145,38.545 446.079,38.250 446.014 C 38.062 445.973,35.746 441.165,33.105 435.330 C 30.463 429.495,28.225 424.722,28.130 424.723 C 28.036 424.725,25.737 429.583,23.021 435.519 C 20.305 441.455,17.986 446.312,17.867 446.312 C 17.664 446.312,16.141 442.824,8.383 424.599 L 5.200 417.123 7.457 417.223 L 9.714 417.324 13.887 427.354 C 16.182 432.871,18.137 437.462,18.231 437.556 C 18.325 437.650,20.464 433.137,22.985 427.526 C 27.745 416.929,28.085 416.259,28.472 416.709 C 28.601 416.859,30.853 421.721,33.478 427.514 M87.701 416.945 C 102.073 420.772,102.073 442.007,87.701 445.834 C 77.250 448.616,68.455 442.016,68.455 431.389 C 68.455 420.773,77.260 414.165,87.701 416.945 M258.885 416.945 C 275.669 421.414,271.986 446.329,254.545 446.300 C 245.282 446.284,239.638 440.639,239.638 431.389 C 239.638 420.773,248.444 414.165,258.885 416.945 M349.715 417.018 C 350.105 417.168,350.257 417.687,350.257 418.867 L 350.257 420.507 346.569 420.642 C 338.961 420.920,335.002 424.537,334.995 431.218 C 334.987 438.017,339.221 441.898,346.913 442.140 L 350.600 442.256 350.600 443.901 C 350.600 445.817,350.348 445.961,346.998 445.958 C 344.036 445.957,340.610 445.141,338.222 443.868 C 328.513 438.693,328.611 423.671,338.386 418.861 C 341.629 417.264,347.759 416.267,349.715 417.018 M132.407 417.525 C 139.539 419.055,141.991 429.308,136.150 433.173 C 134.505 434.262,134.348 433.492,137.556 440.068 L 140.284 445.658 138.191 445.556 L 136.098 445.455 133.895 440.652 C 131.189 434.752,131.864 435.291,127.512 435.557 L 123.842 435.782 123.842 440.704 L 123.842 445.626 122.127 445.626 L 120.412 445.626 120.412 431.389 L 120.412 417.153 125.541 417.153 C 128.361 417.153,131.451 417.320,132.407 417.525 M165.087 424.047 L 165.180 430.942 171.355 424.049 L 177.530 417.156 179.883 417.154 L 182.237 417.153 179.157 420.497 C 171.254 429.081,169.468 431.057,169.470 431.217 C 169.472 431.397,173.296 435.629,179.156 441.938 L 182.581 445.626 180.055 445.603 L 177.530 445.580 171.355 438.711 L 165.180 431.843 165.087 438.734 L 164.994 445.626 163.286 445.626 L 161.578 445.626 161.578 431.389 L 161.578 417.153 163.286 417.153 L 164.994 417.153 165.087 424.047 M217.496 418.868 L 217.496 420.583 211.827 420.583 L 206.158 420.583 206.252 426.329 L 206.346 432.075 212.969 432.169 L 219.591 432.262 219.487 433.884 L 219.383 435.506 212.779 435.599 L 206.175 435.692 206.175 440.659 L 206.175 445.626 204.460 445.626 L 202.744 445.626 202.744 431.389 L 202.744 417.153 210.120 417.153 L 217.496 417.153 217.496 418.868 M303.591 417.525 C 310.722 419.055,313.175 429.308,307.333 433.173 C 305.689 434.262,305.532 433.492,308.740 440.068 L 311.468 445.658 309.375 445.556 L 307.282 445.455 305.079 440.652 C 302.373 434.752,303.048 435.291,298.696 435.557 L 295.026 435.782 295.026 440.704 L 295.026 445.626 293.310 445.626 L 291.595 445.626 291.595 431.389 L 291.595 417.153 296.724 417.153 C 299.545 417.153,302.635 417.320,303.591 417.525 M386.964 418.868 L 386.964 420.583 381.295 420.583 L 375.627 420.583 375.721 426.329 L 375.815 432.075 382.247 432.169 L 388.679 432.262 388.679 433.970 L 388.679 435.678 382.161 435.678 L 375.643 435.678 375.643 438.937 L 375.643 442.196 383.362 442.196 L 391.081 442.196 391.081 443.911 L 391.081 445.626 381.647 445.626 L 372.213 445.626 372.213 431.389 L 372.213 417.153 379.588 417.153 L 386.964 417.153 386.964 418.868 M80.024 420.404 C 69.076 423.485,69.324 439.589,80.362 442.417 C 88.026 444.380,94.520 439.320,94.506 431.397 C 94.492 423.367,87.730 418.234,80.024 420.404 M251.208 420.404 C 240.260 423.485,240.507 439.589,251.546 442.417 C 259.210 444.380,265.703 439.320,265.689 431.397 C 265.675 423.367,258.914 418.234,251.208 420.404 M123.842 426.207 L 123.842 431.904 127.222 431.904 C 133.384 431.904,135.913 429.920,135.412 425.478 C 135.026 422.048,133.049 420.806,127.702 420.634 L 123.842 420.509 123.842 426.207 M295.026 426.207 L 295.026 431.904 298.405 431.904 C 304.567 431.904,307.096 429.920,306.596 425.478 C 306.209 422.048,304.233 420.806,298.885 420.634 L 295.026 420.509 295.026 426.207 " stroke="none" fill="#fbfbfb" fill-rule="evenodd"></path><path id="path2" d="M214.171 18.696 C 214.173 19.828,214.237 20.250,214.314 19.634 C 214.390 19.017,214.389 18.091,214.310 17.575 C 214.232 17.060,214.170 17.564,214.171 18.696 M77.636 45.111 C 77.638 46.244,77.702 46.665,77.779 46.049 C 77.855 45.432,77.853 44.506,77.775 43.990 C 77.697 43.475,77.634 43.979,77.636 45.111 M77.297 68.611 C 77.297 69.837,77.359 70.339,77.435 69.726 C 77.511 69.112,77.511 68.109,77.435 67.496 C 77.359 66.883,77.297 67.384,77.297 68.611 M94.452 78.731 C 94.454 80.051,94.516 80.550,94.590 79.838 C 94.664 79.126,94.663 78.046,94.587 77.437 C 94.511 76.828,94.451 77.410,94.452 78.731 M76.956 92.453 C 76.958 93.774,77.020 94.272,77.094 93.560 C 77.169 92.848,77.167 91.768,77.092 91.159 C 77.016 90.550,76.955 91.132,76.956 92.453 M94.109 102.401 C 94.111 103.722,94.173 104.220,94.247 103.509 C 94.321 102.797,94.320 101.716,94.244 101.107 C 94.168 100.498,94.108 101.081,94.109 102.401 M76.613 116.123 C 76.615 117.444,76.677 117.943,76.751 117.231 C 76.825 116.519,76.824 115.438,76.748 114.829 C 76.673 114.220,76.612 114.803,76.613 116.123 M93.766 126.072 C 93.768 127.393,93.830 127.891,93.904 127.179 C 93.978 126.468,93.977 125.387,93.901 124.778 C 93.825 124.169,93.765 124.751,93.766 126.072 M76.270 139.794 C 76.272 141.115,76.334 141.613,76.408 140.901 C 76.482 140.190,76.481 139.109,76.405 138.500 C 76.330 137.891,76.269 138.473,76.270 139.794 M212.113 140.823 C 212.115 141.955,212.179 142.377,212.255 141.761 C 212.332 141.144,212.330 140.218,212.252 139.702 C 212.174 139.187,212.111 139.691,212.113 140.823 M93.420 149.914 C 93.420 151.141,93.483 151.642,93.559 151.029 C 93.635 150.416,93.635 149.413,93.559 148.799 C 93.483 148.186,93.420 148.688,93.420 149.914 M194.617 152.487 C 194.619 153.619,194.683 154.041,194.760 153.424 C 194.836 152.808,194.835 151.882,194.756 151.366 C 194.678 150.851,194.616 151.355,194.617 152.487 M211.770 161.407 C 211.772 162.539,211.836 162.960,211.912 162.344 C 211.989 161.727,211.987 160.801,211.909 160.285 C 211.831 159.770,211.768 160.274,211.770 161.407 M75.927 163.465 C 75.929 164.786,75.991 165.284,76.065 164.572 C 76.139 163.860,76.138 162.780,76.062 162.171 C 75.987 161.562,75.926 162.144,75.927 163.465 M169.726 162.169 C 170.339 162.245,171.342 162.245,171.955 162.169 C 172.569 162.093,172.067 162.031,170.840 162.031 C 169.614 162.031,169.112 162.093,169.726 162.169 M166.400 163.319 C 165.600 163.899,165.037 164.465,165.149 164.577 C 165.466 164.895,167.067 163.918,167.067 163.407 C 167.067 163.156,167.230 162.950,167.430 162.950 C 167.630 162.950,167.683 163.128,167.549 163.346 C 167.396 163.594,167.455 163.649,167.706 163.494 C 167.927 163.358,168.027 163.115,167.928 162.956 C 167.829 162.796,167.943 162.588,168.180 162.492 C 168.430 162.391,168.452 162.307,168.233 162.291 C 168.026 162.276,167.201 162.739,166.400 163.319 M175.547 164.223 C 175.646 164.482,175.902 164.631,176.114 164.553 C 176.327 164.476,176.810 164.661,177.187 164.965 C 177.725 165.399,177.705 165.328,177.095 164.634 C 176.272 163.699,175.241 163.425,175.547 164.223 M163.950 166.291 C 163.696 166.623,163.624 166.779,163.791 166.637 C 163.959 166.495,164.378 166.635,164.723 166.948 C 165.269 167.442,165.352 167.447,165.352 166.991 C 165.352 166.046,164.474 165.608,163.950 166.291 M166.863 166.091 C 166.701 166.352,166.770 166.393,167.064 166.211 C 167.400 166.004,167.467 166.159,167.336 166.844 C 167.240 167.344,167.295 167.753,167.458 167.753 C 167.620 167.753,167.753 167.290,167.753 166.724 C 167.753 165.681,167.310 165.367,166.863 166.091 M175.694 167.372 C 175.331 167.601,175.315 167.826,175.620 168.395 C 176.083 169.261,176.401 169.369,176.089 168.554 C 175.950 168.193,176.005 168.067,176.239 168.212 C 176.474 168.357,176.543 168.190,176.429 167.753 C 176.330 167.376,176.229 167.069,176.204 167.072 C 176.178 167.075,175.949 167.210,175.694 167.372 M179.292 168.274 C 179.619 169.025,179.996 170.952,180.131 172.556 L 180.376 175.472 180.325 172.442 L 180.274 169.413 181.217 171.413 C 185.470 180.440,174.949 189.971,168.611 182.834 L 167.925 182.061 168.674 182.454 C 169.086 182.671,169.693 182.847,170.022 182.847 C 170.351 182.847,169.782 182.423,168.758 181.904 C 167.426 181.229,166.924 180.788,166.997 180.355 C 167.054 180.022,166.976 179.789,166.826 179.838 C 166.502 179.942,164.798 178.792,164.923 178.553 C 165.006 178.392,164.948 178.375,164.408 178.399 C 164.267 178.405,164.515 178.714,164.961 179.085 C 165.406 179.456,165.666 179.760,165.538 179.760 C 165.223 179.760,166.588 181.723,167.893 183.147 C 171.732 187.334,178.211 186.650,181.354 181.725 C 184.014 177.555,183.296 171.229,179.787 167.931 L 178.700 166.909 179.292 168.274 M165.009 169.468 C 165.009 170.109,165.100 170.200,165.420 169.880 C 165.740 169.560,165.740 169.377,165.420 169.057 C 165.100 168.736,165.009 168.828,165.009 169.468 M175.303 171.175 C 174.929 171.411,174.893 171.600,175.171 171.878 C 175.449 172.156,175.601 172.068,175.737 171.549 C 175.839 171.159,175.898 170.843,175.868 170.846 C 175.839 170.849,175.584 170.997,175.303 171.175 M194.274 173.070 C 194.276 174.202,194.340 174.624,194.417 174.008 C 194.493 173.391,194.491 172.465,194.413 171.949 C 194.335 171.434,194.272 171.938,194.274 173.070 M93.080 173.756 C 93.082 175.077,93.144 175.575,93.218 174.864 C 93.292 174.152,93.291 173.071,93.215 172.462 C 93.139 171.853,93.078 172.436,93.080 173.756 M171.361 171.955 C 171.034 172.923,171.032 173.692,171.355 173.807 C 171.544 173.873,171.698 173.388,171.698 172.727 C 171.698 171.465,171.601 171.242,171.361 171.955 M174.004 173.372 C 174.146 174.114,174.091 174.206,173.702 173.882 C 173.323 173.568,173.270 173.602,173.442 174.051 C 173.561 174.361,173.805 174.614,173.985 174.614 C 174.165 174.614,174.201 174.792,174.067 175.010 C 173.904 175.274,173.974 175.312,174.276 175.125 C 174.613 174.917,174.669 175.004,174.495 175.459 C 174.214 176.191,174.817 177.026,175.599 176.988 C 175.955 176.971,176.002 176.898,175.729 176.788 C 174.981 176.486,175.267 176.077,176.158 176.175 C 176.630 176.227,177.015 176.118,177.015 175.933 C 177.015 175.748,176.707 175.695,176.329 175.815 C 175.638 176.034,175.362 175.514,175.971 175.138 C 176.152 175.026,176.200 174.670,176.079 174.346 C 175.895 173.856,175.945 173.827,176.376 174.177 C 176.821 174.538,176.873 174.452,176.744 173.577 C 176.559 172.315,176.284 172.289,175.730 173.482 C 175.388 174.218,175.388 174.458,175.730 174.675 C 175.993 174.842,176.013 174.949,175.781 174.952 C 175.574 174.955,175.244 175.304,175.047 175.729 C 174.736 176.401,174.703 176.335,174.797 175.218 C 174.856 174.513,174.762 173.848,174.588 173.740 C 174.414 173.633,174.273 173.361,174.276 173.136 C 174.279 172.884,174.421 172.925,174.645 173.242 C 174.941 173.660,174.984 173.664,174.876 173.263 C 174.616 172.303,173.819 172.402,174.004 173.372 M163.177 175.109 C 163.037 175.474,163.093 175.595,163.334 175.447 C 163.587 175.290,163.636 175.481,163.485 176.029 C 163.295 176.718,163.319 176.751,163.637 176.244 C 163.872 175.869,163.897 175.436,163.705 175.091 C 163.422 174.587,163.377 174.589,163.177 175.109 M167.249 177.802 C 167.102 178.140,167.078 178.513,167.196 178.631 C 167.544 178.980,167.825 178.490,167.665 177.814 C 167.523 177.215,167.504 177.214,167.249 177.802 M211.427 181.647 C 211.429 182.779,211.493 183.200,211.569 182.584 C 211.646 181.967,211.644 181.041,211.566 180.526 C 211.488 180.010,211.425 180.515,211.427 181.647 M75.582 187.307 C 75.582 188.533,75.644 189.035,75.720 188.422 C 75.796 187.809,75.796 186.805,75.720 186.192 C 75.644 185.579,75.582 186.081,75.582 187.307 M193.931 193.310 C 193.933 194.443,193.997 194.864,194.074 194.248 C 194.150 193.631,194.148 192.705,194.070 192.189 C 193.992 191.674,193.929 192.178,193.931 193.310 M92.737 197.427 C 92.738 198.748,92.800 199.246,92.875 198.534 C 92.949 197.823,92.948 196.742,92.872 196.133 C 92.796 195.524,92.735 196.106,92.737 197.427 M211.084 201.887 C 211.086 203.019,211.150 203.441,211.226 202.824 C 211.303 202.207,211.301 201.281,211.223 200.766 C 211.145 200.250,211.082 200.755,211.084 201.887 M75.241 211.149 C 75.243 212.470,75.305 212.968,75.379 212.256 C 75.453 211.545,75.452 210.464,75.376 209.855 C 75.300 209.246,75.240 209.828,75.241 211.149 M193.588 213.551 C 193.590 214.683,193.654 215.104,193.731 214.488 C 193.807 213.871,193.805 212.945,193.727 212.430 C 193.649 211.914,193.586 212.419,193.588 213.551 M92.394 221.098 C 92.395 222.419,92.457 222.917,92.532 222.205 C 92.606 221.493,92.605 220.413,92.529 219.804 C 92.453 219.195,92.392 219.777,92.394 221.098 M210.741 222.470 C 210.743 223.602,210.807 224.024,210.883 223.407 C 210.960 222.791,210.958 221.864,210.880 221.349 C 210.801 220.833,210.739 221.338,210.741 222.470 M239.966 233.611 C 223.928 237.728,210.729 241.051,210.635 240.995 C 210.540 240.939,210.422 243.773,210.373 247.291 C 210.037 271.063,209.241 320.143,209.173 321.309 C 209.098 322.604,209.147 322.696,209.777 322.420 C 210.267 322.205,374.576 279.645,388.616 276.096 C 390.589 275.598,391.876 276.247,371.184 267.300 L 352.830 259.364 298.799 274.063 C 269.082 282.147,244.728 288.728,244.679 288.688 C 244.630 288.648,247.463 282.946,250.976 276.019 C 254.488 269.091,257.307 263.371,257.240 263.308 C 257.131 263.205,223.317 261.735,221.298 261.745 C 219.623 261.754,221.575 261.230,264.158 250.250 C 288.014 244.099,307.584 239.014,307.647 238.951 C 307.763 238.835,269.613 226.050,269.297 226.099 C 269.202 226.113,256.003 229.494,239.966 233.611 M193.245 234.134 C 193.247 235.266,193.311 235.688,193.388 235.071 C 193.464 234.454,193.462 233.528,193.384 233.013 C 193.306 232.497,193.243 233.002,193.245 234.134 M74.898 234.820 C 74.900 236.141,74.962 236.639,75.036 235.927 C 75.110 235.215,75.109 234.135,75.033 233.526 C 74.957 232.917,74.897 233.499,74.898 234.820 M92.051 244.768 C 92.052 246.089,92.114 246.587,92.189 245.876 C 92.263 245.164,92.262 244.083,92.186 243.474 C 92.110 242.865,92.049 243.448,92.051 244.768 M192.902 254.374 C 192.904 255.506,192.968 255.928,193.045 255.311 C 193.121 254.695,193.119 253.768,193.041 253.253 C 192.963 252.737,192.900 253.242,192.902 254.374 M74.555 258.491 C 74.557 259.811,74.619 260.310,74.693 259.598 C 74.767 258.886,74.766 257.805,74.690 257.196 C 74.614 256.587,74.554 257.170,74.555 258.491 M192.559 274.614 C 192.561 275.746,192.625 276.168,192.701 275.551 C 192.778 274.935,192.776 274.008,192.698 273.493 C 192.620 272.978,192.557 273.482,192.559 274.614 M192.216 295.197 C 192.218 296.329,192.282 296.751,192.358 296.135 C 192.435 295.518,192.433 294.592,192.355 294.076 C 192.277 293.561,192.214 294.065,192.216 295.197 M27.702 372.118 C 28.315 372.194,29.318 372.194,29.931 372.118 C 30.545 372.042,30.043 371.979,28.816 371.979 C 27.590 371.979,27.088 372.042,27.702 372.118 M131.890 387.136 C 131.890 395.249,131.935 398.519,131.989 394.402 C 132.044 390.286,132.044 383.648,131.989 379.651 C 131.934 375.654,131.890 379.022,131.890 387.136 M5.938 383.019 C 5.940 384.151,6.004 384.573,6.081 383.956 C 6.157 383.340,6.155 382.413,6.077 381.898 C 5.999 381.382,5.936 381.887,5.938 383.019 M26.849 394.414 C 27.370 394.493,28.142 394.491,28.564 394.410 C 28.986 394.328,28.559 394.264,27.616 394.266 C 26.672 394.269,26.327 394.335,26.849 394.414 M125.129 420.488 C 125.742 420.564,126.745 420.564,127.358 420.488 C 127.972 420.412,127.470 420.350,126.244 420.350 C 125.017 420.350,124.515 420.412,125.129 420.488 M296.312 420.488 C 296.925 420.564,297.929 420.564,298.542 420.488 C 299.155 420.412,298.654 420.350,297.427 420.350 C 296.201 420.350,295.699 420.412,296.312 420.488 M346.226 420.486 C 346.745 420.564,347.594 420.564,348.113 420.486 C 348.632 420.407,348.208 420.343,347.170 420.343 C 346.132 420.343,345.708 420.407,346.226 420.486 M125.129 432.155 C 125.931 432.227,127.243 432.227,128.045 432.155 C 128.846 432.083,128.190 432.024,126.587 432.024 C 124.983 432.024,124.327 432.083,125.129 432.155 M296.312 432.155 C 297.114 432.227,298.426 432.227,299.228 432.155 C 300.030 432.083,299.374 432.024,297.770 432.024 C 296.166 432.024,295.510 432.083,296.312 432.155 M219.309 433.791 C 219.312 434.734,219.378 435.079,219.457 434.558 C 219.536 434.036,219.534 433.265,219.452 432.843 C 219.371 432.421,219.307 432.847,219.309 433.791 M124.957 435.584 C 125.665 435.658,126.822 435.658,127.530 435.584 C 128.238 435.510,127.659 435.450,126.244 435.450 C 124.828 435.450,124.250 435.510,124.957 435.584 M296.141 435.584 C 296.848 435.658,298.006 435.658,298.714 435.584 C 299.421 435.510,298.842 435.450,297.427 435.450 C 296.012 435.450,295.433 435.510,296.141 435.584 M346.404 442.444 C 347.021 442.521,347.947 442.519,348.462 442.441 C 348.978 442.362,348.473 442.300,347.341 442.302 C 346.209 442.304,345.787 442.368,346.404 442.444 " stroke="none" fill="#85bbbb" fill-rule="evenodd"></path><path id="path3" d="M168.180 162.492 C 167.247 162.868,168.166 163.205,169.378 162.932 C 170.099 162.769,171.269 162.776,172.039 162.948 C 172.795 163.116,173.866 163.334,174.419 163.433 C 174.972 163.532,175.666 163.872,175.963 164.188 C 176.453 164.712,176.449 164.745,175.912 164.558 C 175.035 164.252,174.778 164.990,175.568 165.543 C 176.203 165.988,176.877 168.606,176.258 168.223 C 175.876 167.987,175.912 168.176,176.537 169.684 C 176.840 170.414,176.970 170.898,176.826 170.758 C 176.341 170.286,175.643 171.259,175.643 172.406 C 175.643 173.740,175.149 174.200,174.646 173.335 C 174.451 173.001,174.287 172.911,174.281 173.136 C 174.276 173.361,174.425 173.640,174.614 173.756 C 174.803 173.873,174.957 174.344,174.957 174.802 C 174.957 175.604,174.984 175.613,175.643 175.049 C 176.021 174.726,176.327 174.303,176.324 174.109 C 176.321 173.915,176.175 173.984,176.000 174.261 C 175.480 175.083,175.271 174.470,175.733 173.477 C 176.253 172.357,176.665 172.293,176.694 173.328 C 176.706 173.752,176.764 174.586,176.823 175.180 C 176.918 176.138,176.838 176.249,176.115 176.170 C 175.258 176.076,174.997 176.493,175.729 176.788 C 176.002 176.898,175.955 176.971,175.599 176.988 C 174.947 177.020,174.637 176.644,173.805 174.809 C 173.368 173.844,173.330 173.574,173.672 173.858 C 174.066 174.185,174.124 174.076,174.000 173.234 C 173.918 172.672,173.731 172.213,173.586 172.213 C 173.441 172.213,173.241 171.904,173.142 171.527 C 172.751 170.029,171.314 171.520,171.618 173.109 C 171.704 173.559,171.645 173.928,171.488 173.928 C 171.172 173.928,170.154 172.112,170.154 171.548 C 170.154 171.012,169.034 169.811,168.534 169.811 C 168.293 169.811,168.096 170.105,168.096 170.464 C 168.096 170.825,167.598 171.435,166.981 171.830 C 166.218 172.319,166.056 172.546,166.467 172.550 C 167.209 172.557,167.223 172.975,166.524 174.325 C 166.177 174.997,166.069 175.700,166.223 176.281 C 166.438 177.088,166.574 177.958,166.847 180.274 C 166.950 181.153,170.190 182.847,171.765 182.847 C 179.641 182.847,183.091 171.774,177.275 165.166 C 175.115 162.713,170.788 161.440,168.180 162.492 M165.352 166.381 C 165.352 166.569,165.583 166.724,165.866 166.724 C 166.149 166.724,166.381 166.569,166.381 166.381 C 166.381 166.192,166.149 166.038,165.866 166.038 C 165.583 166.038,165.352 166.192,165.352 166.381 M163.941 166.536 C 163.690 167.774,163.888 168.260,164.646 168.264 C 165.765 168.269,165.843 167.706,164.825 166.965 C 164.360 166.626,163.962 166.433,163.941 166.536 M165.400 170.154 C 165.400 170.437,165.533 170.978,165.695 171.355 C 165.881 171.788,165.990 171.851,165.990 171.527 C 165.990 171.244,165.857 170.703,165.695 170.326 C 165.509 169.893,165.400 169.830,165.400 170.154 M162.934 174.557 C 163.362 176.050,164.546 178.617,164.911 178.842 C 165.089 178.952,164.798 178.125,164.264 177.004 C 163.730 175.884,163.293 174.742,163.293 174.468 C 163.293 174.193,163.149 173.879,162.972 173.770 C 162.777 173.649,162.762 173.958,162.934 174.557 M179.013 176.787 C 179.174 177.614,178.502 177.491,178.283 176.653 C 178.166 176.204,178.245 175.996,178.500 176.081 C 178.721 176.154,178.952 176.472,179.013 176.787 M167.753 178.285 C 167.753 178.975,167.654 179.112,167.364 178.822 C 167.151 178.609,167.069 178.192,167.182 177.896 C 167.496 177.078,167.753 177.253,167.753 178.285 M177.708 179.569 C 177.350 180.554,175.300 182.077,175.300 181.358 C 175.300 181.012,175.111 180.883,174.786 181.008 C 173.482 181.508,174.577 179.799,176.329 178.599 C 177.641 177.701,178.235 178.119,177.708 179.569 " stroke="none" fill="#449bce" fill-rule="evenodd"></path><path id="path4" d="M214.194 13.208 C 214.194 15.283,214.251 16.088,214.319 14.996 C 214.387 13.904,214.387 12.206,214.318 11.222 C 214.249 10.239,214.193 11.132,214.194 13.208 M77.663 51.286 C 77.664 53.739,77.719 54.698,77.785 53.416 C 77.851 52.135,77.850 50.128,77.784 48.957 C 77.717 47.785,77.663 48.834,77.663 51.286 M94.472 72.384 C 94.472 74.743,94.527 75.708,94.594 74.528 C 94.661 73.349,94.661 71.419,94.594 70.240 C 94.527 69.061,94.472 70.026,94.472 72.384 M77.320 74.957 C 77.321 77.410,77.375 78.368,77.442 77.087 C 77.508 75.806,77.507 73.799,77.441 72.627 C 77.374 71.456,77.320 72.504,77.320 74.957 M94.129 96.055 C 94.129 98.413,94.184 99.378,94.251 98.199 C 94.318 97.020,94.318 95.090,94.251 93.911 C 94.184 92.732,94.129 93.696,94.129 96.055 M76.976 98.799 C 76.976 101.158,77.031 102.123,77.098 100.943 C 77.165 99.764,77.165 97.834,77.098 96.655 C 77.031 95.476,76.976 96.441,76.976 98.799 M93.786 119.726 C 93.786 122.084,93.841 123.049,93.908 121.870 C 93.975 120.690,93.975 118.761,93.908 117.581 C 93.841 116.402,93.786 117.367,93.786 119.726 M76.633 122.470 C 76.633 124.828,76.688 125.793,76.755 124.614 C 76.822 123.435,76.822 121.505,76.755 120.326 C 76.688 119.147,76.633 120.111,76.633 122.470 M93.444 143.568 C 93.444 146.021,93.499 146.979,93.565 145.698 C 93.631 144.416,93.631 142.409,93.564 141.238 C 93.497 140.066,93.443 141.115,93.444 143.568 M76.290 146.141 C 76.290 148.499,76.345 149.464,76.412 148.285 C 76.479 147.105,76.479 145.176,76.412 143.997 C 76.345 142.817,76.290 143.782,76.290 146.141 M211.792 155.918 C 211.793 157.993,211.849 158.798,211.918 157.706 C 211.986 156.614,211.985 154.916,211.916 153.933 C 211.847 152.949,211.791 153.842,211.792 155.918 M194.639 157.976 C 194.640 160.051,194.697 160.856,194.765 159.764 C 194.833 158.673,194.833 156.975,194.764 155.991 C 194.695 155.007,194.639 155.901,194.639 157.976 M93.100 167.410 C 93.100 169.768,93.154 170.733,93.221 169.554 C 93.288 168.375,93.288 166.445,93.221 165.266 C 93.154 164.087,93.100 165.051,93.100 167.410 M75.948 169.983 C 75.949 172.436,76.003 173.394,76.069 172.113 C 76.136 170.831,76.135 168.824,76.068 167.653 C 76.002 166.482,75.947 167.530,75.948 169.983 M180.269 172.788 C 180.258 180.017,174.013 185.259,168.722 182.480 L 167.925 182.061 168.611 182.834 C 174.949 189.970,185.472 180.438,181.217 171.415 L 180.274 169.417 180.269 172.788 M211.449 176.158 C 211.450 178.233,211.506 179.038,211.575 177.946 C 211.643 176.855,211.642 175.156,211.573 174.173 C 211.504 173.189,211.448 174.082,211.449 176.158 M194.296 178.559 C 194.297 180.635,194.354 181.439,194.422 180.348 C 194.490 179.256,194.490 177.558,194.421 176.574 C 194.352 175.590,194.296 176.484,194.296 178.559 M92.757 191.081 C 92.757 193.439,92.811 194.404,92.878 193.225 C 92.945 192.045,92.945 190.116,92.878 188.937 C 92.811 187.757,92.757 188.722,92.757 191.081 M75.605 193.654 C 75.606 196.106,75.660 197.065,75.726 195.783 C 75.793 194.502,75.792 192.495,75.725 191.324 C 75.659 190.152,75.604 191.201,75.605 193.654 M211.106 196.398 C 211.107 198.473,211.163 199.278,211.232 198.186 C 211.300 197.095,211.299 195.397,211.230 194.413 C 211.161 193.429,211.105 194.322,211.106 196.398 M193.953 198.799 C 193.954 200.875,194.011 201.680,194.079 200.588 C 194.147 199.496,194.147 197.798,194.078 196.814 C 194.008 195.831,193.953 196.724,193.953 198.799 M92.414 214.751 C 92.414 217.110,92.468 218.075,92.535 216.895 C 92.602 215.716,92.602 213.786,92.535 212.607 C 92.468 211.428,92.414 212.393,92.414 214.751 M75.261 217.496 C 75.261 219.854,75.316 220.819,75.383 219.640 C 75.450 218.461,75.450 216.531,75.383 215.352 C 75.316 214.172,75.261 215.137,75.261 217.496 M210.763 216.981 C 210.764 219.057,210.820 219.861,210.889 218.770 C 210.957 217.678,210.956 215.980,210.887 214.996 C 210.818 214.012,210.762 214.906,210.763 216.981 M193.610 219.039 C 193.611 221.115,193.668 221.920,193.736 220.828 C 193.804 219.736,193.804 218.038,193.734 217.054 C 193.665 216.071,193.610 216.964,193.610 219.039 M210.420 237.221 C 210.421 239.297,210.477 240.102,210.545 239.010 C 210.614 237.918,210.613 236.220,210.544 235.236 C 210.475 234.253,210.419 235.146,210.420 237.221 M92.070 238.422 C 92.070 240.780,92.125 241.745,92.192 240.566 C 92.259 239.387,92.259 237.457,92.192 236.278 C 92.125 235.099,92.070 236.063,92.070 238.422 M193.267 239.623 C 193.268 241.698,193.325 242.503,193.393 241.411 C 193.461 240.319,193.460 238.621,193.391 237.638 C 193.322 236.654,193.266 237.547,193.267 239.623 M74.918 241.166 C 74.918 243.525,74.973 244.490,75.040 243.310 C 75.107 242.131,75.107 240.202,75.040 239.022 C 74.973 237.843,74.918 238.808,74.918 241.166 M210.404 243.396 C 210.406 244.717,210.468 245.215,210.542 244.503 C 210.616 243.792,210.615 242.711,210.539 242.102 C 210.463 241.493,210.403 242.075,210.404 243.396 M192.924 259.863 C 192.925 261.938,192.981 262.743,193.050 261.651 C 193.118 260.559,193.117 258.861,193.048 257.878 C 192.979 256.894,192.923 257.787,192.924 259.863 M210.084 261.235 C 210.084 263.877,210.138 264.912,210.204 263.536 C 210.269 262.159,210.268 259.998,210.203 258.733 C 210.137 257.468,210.083 258.593,210.084 261.235 M91.713 260.549 C 91.714 262.058,91.774 262.633,91.847 261.826 C 91.919 261.019,91.918 259.784,91.845 259.082 C 91.771 258.379,91.712 259.039,91.713 260.549 M74.575 264.837 C 74.575 267.196,74.630 268.160,74.697 266.981 C 74.764 265.802,74.764 263.872,74.697 262.693 C 74.630 261.514,74.575 262.479,74.575 264.837 M192.581 280.103 C 192.582 282.178,192.638 282.983,192.707 281.891 C 192.775 280.800,192.774 279.102,192.705 278.118 C 192.636 277.134,192.580 278.027,192.581 280.103 M209.742 281.647 C 209.742 284.383,209.795 285.502,209.860 284.134 C 209.925 282.766,209.925 280.527,209.860 279.160 C 209.795 277.792,209.742 278.911,209.742 281.647 M209.399 301.887 C 209.399 304.623,209.452 305.742,209.517 304.374 C 209.582 303.006,209.582 300.768,209.517 299.400 C 209.452 298.032,209.399 299.151,209.399 301.887 M208.916 320.139 C 208.823 321.593,208.871 322.658,209.022 322.506 C 209.173 322.355,209.248 321.165,209.190 319.863 L 209.084 317.496 208.916 320.139 M35.333 368.541 L 35.503 372.727 35.602 368.811 C 35.656 366.657,35.580 364.773,35.432 364.625 C 35.284 364.476,35.239 366.238,35.333 368.541 M121.915 368.268 C 121.916 370.532,121.971 371.413,122.038 370.227 C 122.105 369.040,122.105 367.188,122.037 366.110 C 121.969 365.033,121.914 366.003,121.915 368.268 M194.926 381.208 L 194.854 384.887 189.966 384.992 L 185.077 385.098 189.976 385.173 C 195.696 385.261,195.266 385.616,195.111 380.936 L 194.998 377.530 194.926 381.208 M30.085 380.321 C 29.953 380.453,29.846 383.609,29.846 387.336 C 29.846 391.621,29.716 394.175,29.494 394.285 C 29.301 394.381,29.339 394.420,29.580 394.371 C 29.913 394.304,30.039 392.637,30.110 387.364 L 30.203 380.446 34.136 380.446 L 38.069 380.446 38.167 390.823 L 38.266 401.201 38.258 390.738 L 38.250 380.274 34.287 380.178 C 32.107 380.126,30.216 380.190,30.085 380.321 M29.245 402.295 C 29.575 402.381,30.116 402.381,30.446 402.295 C 30.776 402.209,30.506 402.138,29.846 402.138 C 29.185 402.138,28.915 402.209,29.245 402.295 M346.226 417.055 C 346.745 417.134,347.594 417.134,348.113 417.055 C 348.632 416.977,348.208 416.912,347.170 416.912 C 346.132 416.912,345.708 416.977,346.226 417.055 M386.679 418.602 L 386.621 420.223 381.046 420.327 L 375.472 420.430 381.057 420.507 C 387.251 420.592,387.115 420.643,386.873 418.304 C 386.742 417.041,386.734 417.054,386.679 418.602 M93.997 420.755 C 94.637 421.415,95.238 421.955,95.332 421.955 C 95.426 421.955,94.980 421.415,94.340 420.755 C 93.700 420.094,93.099 419.554,93.004 419.554 C 92.910 419.554,93.357 420.094,93.997 420.755 M265.180 420.755 C 265.820 421.415,266.421 421.955,266.515 421.955 C 266.610 421.955,266.163 421.415,265.523 420.755 C 264.883 420.094,264.282 419.554,264.188 419.554 C 264.094 419.554,264.540 420.094,265.180 420.755 M209.022 420.496 C 210.682 420.559,213.307 420.559,214.854 420.495 C 216.401 420.432,215.043 420.380,211.835 420.381 C 208.628 420.381,207.362 420.433,209.022 420.496 M334.627 421.698 L 333.619 422.813 334.734 421.805 C 335.347 421.251,335.849 420.750,335.849 420.691 C 335.849 420.426,335.566 420.659,334.627 421.698 M176.822 422.727 L 175.815 423.842 176.930 422.835 C 177.543 422.280,178.045 421.779,178.045 421.720 C 178.045 421.455,177.762 421.688,176.822 422.727 M71.785 431.389 C 71.788 432.144,71.859 432.412,71.941 431.986 C 72.023 431.559,72.020 430.941,71.934 430.613 C 71.848 430.286,71.781 430.635,71.785 431.389 M242.968 431.389 C 242.972 432.144,243.042 432.412,243.124 431.986 C 243.206 431.559,243.203 430.941,243.117 430.613 C 243.031 430.286,242.964 430.635,242.968 431.389 M334.556 431.218 C 334.556 431.878,334.627 432.148,334.713 431.818 C 334.800 431.488,334.800 430.948,334.713 430.617 C 334.627 430.287,334.556 430.557,334.556 431.218 M388.394 433.697 L 388.336 435.319 381.904 435.421 L 375.472 435.522 381.915 435.600 C 389.054 435.686,388.832 435.759,388.588 433.398 C 388.458 432.136,388.449 432.149,388.394 433.697 M171.870 434.413 C 171.870 434.472,172.371 434.973,172.985 435.528 L 174.099 436.535 173.092 435.420 C 172.153 434.381,171.870 434.148,171.870 434.413 M209.348 435.590 C 211.188 435.652,214.198 435.652,216.038 435.590 C 217.877 435.529,216.372 435.478,212.693 435.478 C 209.014 435.478,207.509 435.529,209.348 435.590 M93.978 442.110 L 92.796 443.396 94.082 442.214 C 94.790 441.564,95.369 440.985,95.369 440.928 C 95.369 440.666,95.078 440.912,93.978 442.110 M265.162 442.110 L 263.979 443.396 265.266 442.214 C 266.463 441.114,266.710 440.823,266.448 440.823 C 266.391 440.823,265.812 441.402,265.162 442.110 M350.360 443.911 C 350.360 444.949,350.424 445.373,350.503 444.854 C 350.582 444.335,350.582 443.486,350.503 442.967 C 350.424 442.449,350.360 442.873,350.360 443.911 M379.522 442.452 C 381.750 442.512,385.300 442.512,387.412 442.451 C 389.524 442.391,387.702 442.342,383.362 442.343 C 379.022 442.343,377.294 442.392,379.522 442.452 M179.760 442.989 C 179.760 443.048,180.262 443.550,180.875 444.104 L 181.990 445.111 180.982 443.997 C 180.043 442.957,179.760 442.724,179.760 442.989 M346.226 445.872 C 346.745 445.950,347.594 445.950,348.113 445.872 C 348.632 445.793,348.208 445.729,347.170 445.729 C 346.132 445.729,345.708 445.793,346.226 445.872 " stroke="none" fill="#7c7c7c" fill-rule="evenodd"></path></g></svg>