<svg width="370" height="264" viewBox="0 0 370 264" fill="none" xmlns="http://www.w3.org/2000/svg">
<path d="M271.899 26.7881V79.2109L226.5 105.423L181.101 79.2109V26.7881L226.5 0.576172L271.899 26.7881Z" stroke="#18B8E5" stroke-opacity="0.24"/>
<path d="M226.899 105.788V158.211L181.5 184.423L136.101 158.211V105.788L181.5 79.5762L226.899 105.788Z" stroke="#18B8E5" stroke-opacity="0.24"/>
<path d="M181.899 184.788V237.211L136.5 263.423L91.1006 237.211V184.788L136.5 158.576L181.899 184.788Z" stroke="#18B8E5" stroke-opacity="0.24"/>
<path d="M271.899 184.788V237.211L226.5 263.423L181.101 237.211V184.788L226.5 158.576L271.899 184.788Z" stroke="#18B8E5" stroke-opacity="0.24"/>
<path d="M361.899 184.788V237.211L316.5 263.423L271.101 237.211V184.788L316.5 158.576L361.899 184.788Z" stroke="#18B8E5" stroke-opacity="0.24"/>
<path d="M318.899 105.788V158.211L273.5 184.423L228.101 158.211V105.788L273.5 79.5762L318.899 105.788Z" stroke="#18B8E5" stroke-opacity="0.24"/>
<path d="M91.2988 184.788V237.211L45.8994 263.423L0.5 237.211V184.788L45.8994 158.576L91.2988 184.788Z" stroke="#18B8E5" stroke-opacity="0.24"/>
</svg>
