<svg width="184" height="276" viewBox="0 0 184 276" fill="none" xmlns="http://www.w3.org/2000/svg">
<path d="M120.5 274.5L1 147V2L183 210.5L120.5 274.5Z" fill="#2D77C2" stroke="#2D77C2" stroke-opacity="0.17"/>
<path d="M148.825 228L150.45 220.975L145 216.25L152.2 215.625L155 209L157.8 215.625L165 216.25L159.55 220.975L161.175 228L155 224.275L148.825 228Z" fill="white"/>
<path d="M73.825 128L75.45 120.975L70 116.25L77.2 115.625L80 109L82.8 115.625L90 116.25L84.55 120.975L86.175 128L80 124.275L73.825 128Z" fill="white"/>
<path d="M14.825 114L16.45 106.975L11 102.25L18.2 101.625L21 95L23.8 101.625L31 102.25L25.55 106.975L27.175 114L21 110.275L14.825 114Z" fill="white"/>
<path d="M79.825 209L81.45 201.975L76 197.25L83.2 196.625L86 190L88.8 196.625L96 197.25L90.55 201.975L92.175 209L86 205.275L79.825 209Z" fill="white"/>
</svg>
